<svg xmlns="http://www.w3.org/2000/svg" version="1.1" xmlns:xlink="http://www.w3.org/1999/xlink" width="512" height="512" x="0" y="0" viewBox="0 0 64 64" style="enable-background:new 0 0 512 512" xml:space="preserve" class=""><g><path d="M60.85 46.11a4.74 4.74 0 0 0-2.41-3L46.07 36.7a4.71 4.71 0 0 0-6 1.37l-2 2.74a.72.72 0 0 1-.93.21 36.3 36.3 0 0 1-8-6.17 36.31 36.31 0 0 1-6.17-8 .72.72 0 0 1 .21-.93l2.73-2a4.71 4.71 0 0 0 1.37-6L20.91 5.56a4.73 4.73 0 0 0-6.82-1.76L6.32 9A7.48 7.48 0 0 0 3 15.69a37.64 37.64 0 0 0 .89 6.57C6 30.4 11.09 38.77 18.16 45.85S33.61 58 41.75 60.09a37.67 37.67 0 0 0 6.57.89h.5A7.48 7.48 0 0 0 55 57.69l5.18-7.77a4.73 4.73 0 0 0 .67-3.81Zm-4 1.58-5.15 7.78A3.5 3.5 0 0 1 48.58 57a34.57 34.57 0 0 1-5.83-.77C35.29 54.29 27.57 49.6 21 43S9.72 28.71 7.78 21.25A34.54 34.54 0 0 1 7 15.42a3.47 3.47 0 0 1 1.53-3.11l7.77-5.18a.71.71 0 0 1 .4-.12h.19a.72.72 0 0 1 .46.37l6.4 12.37a.73.73 0 0 1-.21.92l-2.73 2a4.72 4.72 0 0 0-1.28 6.13 40.54 40.54 0 0 0 6.8 8.81 40.52 40.52 0 0 0 8.81 6.8 4.72 4.72 0 0 0 6.13-1.28l2-2.74a.73.73 0 0 1 .92-.21l12.37 6.4a.73.73 0 0 1 .27 1.05Z" fill="#ececec" opacity="1" data-original="#000000" class=""></path></g></svg>