<svg xmlns="http://www.w3.org/2000/svg" version="1.1" xmlns:xlink="http://www.w3.org/1999/xlink" width="512" height="512" x="0" y="0" viewBox="0 0 64 64" style="enable-background:new 0 0 512 512" xml:space="preserve" class=""><g><path d="M51.6 62H12.4c-3.7 0-6.8-3-6.8-6.8V24.9c0-2 .9-3.9 2.5-5.2L27.7 3.5c2.5-2.1 6.1-2.1 8.6 0l19.6 16.1c1.6 1.3 2.5 3.2 2.5 5.2v30.3c0 3.9-3.1 6.9-6.8 6.9zM32 6c-.6 0-1.3.2-1.8.6L10.6 22.8c-.6.5-1 1.3-1 2.1v30.3c0 1.5 1.2 2.8 2.8 2.8h39.2c1.5 0 2.8-1.2 2.8-2.8V24.9c0-.8-.4-1.6-1-2.1L33.8 6.6c-.5-.4-1.2-.6-1.8-.6z" fill="#ececec" opacity="1" data-original="#000000" class=""></path><path d="M44 53.2H20c-1.1 0-2-.9-2-2s.9-2 2-2h24c1.1 0 2 .9 2 2s-.9 2-2 2z" fill="#ececec" opacity="1" data-original="#000000" class=""></path></g></svg>