<svg xmlns="http://www.w3.org/2000/svg" version="1.1" xmlns:xlink="http://www.w3.org/1999/xlink" width="512" height="512" x="0" y="0" viewBox="0 0 64 64" style="enable-background:new 0 0 512 512" xml:space="preserve" class=""><g><g fill="#1d63f8" fill-rule="evenodd"><path d="M26.327 32.881H20.55v5.304h5.51c.828-.024 2.358-.284 2.358-2.578 0-2.754-2.092-2.726-2.092-2.726M41.116 29.822c-3.066 0-3.492 3.06-3.492 3.06h6.518s.04-3.06-3.026-3.06M26.326 25.394H20.55v4.428h5.418c.936 0 1.762-.3 1.762-2.364s-1.404-2.064-1.404-2.064z" fill="#ffffff" opacity="1" data-original="#1d63f8" class=""></path><path d="M47.946 35.53H37.662c0 3.686 3.494 3.454 3.494 3.454 3.298 0 3.182-2.134 3.182-2.134h3.492c0 5.664-6.792 5.276-6.792 5.276-8.148 0-7.624-7.586-7.624-7.586s-.008-7.624 7.624-7.624c8.032 0 6.908 8.614 6.908 8.614zm-15.316.324c0 6.056-6.304 5.858-6.304 5.858H16V21.866h10.326c3.138 0 5.616 1.734 5.616 5.284 0 3.552-3.028 3.776-3.028 3.776 3.992 0 3.716 4.928 3.716 4.928zm4.14-12.818h8.188v2.444H36.77zM32 0C14.326 0 0 14.326 0 32c0 17.672 14.326 32 32 32s32-14.328 32-32C64 14.326 49.674 0 32 0z" fill="#ffffff" opacity="1" data-original="#1d63f8" class=""></path></g></g></svg>